<svg width="227" height="53" viewBox="0 0 227 53" fill="none" xmlns="http://www.w3.org/2000/svg">
<g filter="url(#filter0_d_1_14)">
<mask id="path-1-inside-1_1_14" fill="white">
<path d="M35.185 30.8664H43.3486C42.1512 35.4152 39.8654 38.8809 36.4911 41.2635C33.1168 43.7545 28.8718 45 23.7559 45C17.5516 45 12.7078 42.9964 9.2247 38.9892C5.74157 35.0903 4 29.5126 4 22.2563C4 15.3249 5.68714 9.90975 9.06143 6.01083C12.5446 2.00361 17.3883 0 23.5926 0C30.1235 0 35.185 1.94946 38.7769 5.84838C42.2601 9.8556 44.0016 15.4332 44.0016 22.5812C44.0016 23.0144 44.0016 23.3935 44.0016 23.7184C44.0016 24.0433 44.0016 24.2599 44.0016 24.3682C44.0016 24.9097 43.9472 25.2888 43.8384 25.5054H15.5923C15.7012 28.8628 16.5175 31.3538 18.0414 32.9783C19.4564 34.7112 21.579 35.5776 24.409 35.5776C26.2594 35.5776 27.8377 35.1986 29.1439 34.4404C29.4704 34.3321 29.7426 34.1697 29.9602 33.9531C30.2868 33.6282 30.6133 33.3032 30.9399 32.9783C31.0487 32.6534 31.4297 32.2202 32.0828 31.6787C32.8447 31.1372 33.8788 30.8664 35.185 30.8664ZM15.5923 18.1949H32.2461C32.0284 15.2708 31.2664 13.1047 29.9602 11.6968C28.5452 10.1805 26.5315 9.42238 23.9192 9.42238C21.5245 9.42238 19.5653 10.1805 18.0414 11.6968C16.5175 13.213 15.7012 15.3791 15.5923 18.1949Z"/>
<path d="M91.4224 22.4188C89.8985 23.1769 87.776 23.8809 85.0547 24.5307C82.5512 25.0722 81.2995 25.343 81.2995 25.343C79.3402 25.8845 77.9252 26.5884 77.0544 27.4549C76.2925 28.6462 75.9115 29.8375 75.9115 31.0289C75.9115 32.6534 76.4013 33.9531 77.381 34.9278C78.3606 35.7942 79.7756 36.2274 81.626 36.2274C84.6738 36.2274 87.0684 35.361 88.81 33.6282C90.5516 31.8953 91.4224 29.5126 91.4224 26.4801V22.4188ZM94.0347 42.4007C91.7489 43.5921 89.2998 44.296 86.6875 44.5126C84.184 44.8375 81.9526 45 79.9933 45C76.0748 45 72.6461 43.9711 69.7072 41.9134C66.7683 39.7473 65.2988 36.2274 65.2988 31.3538C65.2988 26.8051 66.605 23.556 69.2174 21.6065C71.9386 19.657 75.3673 18.3574 79.5035 17.7076C80.0477 17.7076 80.7008 17.6534 81.4628 17.5451C82.2247 17.3285 83.0955 17.1661 84.0751 17.0578C88.8644 16.4079 91.2591 15 91.2591 12.8339C91.2591 11.2094 90.3883 10.1805 88.6467 9.74729C87.014 9.20578 85.4901 8.93502 84.0751 8.93502C82.5512 8.93502 81.1907 9.15162 79.9933 9.58484C78.796 10.0181 77.9252 10.8303 77.381 12.0217H66.4417C66.8771 8.66426 68.401 5.90253 71.0134 3.73646C73.9523 1.24549 78.1429 0 83.5853 0C89.6808 0 94.2524 1.02888 97.3001 3.08664C100.457 5.25271 102.035 8.2852 102.035 12.1841V26.9675C102.035 31.2996 101.219 34.7112 99.586 37.2022C98.0621 39.5848 96.2117 41.3177 94.0347 42.4007Z"/>
<path d="M123.169 29.8917H134.271C134.38 32.0578 135.197 33.6823 136.721 34.7653C138.353 35.8484 140.53 36.3899 143.251 36.3899C145.211 36.3899 146.898 36.0108 148.313 35.2527C149.619 34.4946 150.272 33.4657 150.272 32.1661C150.272 30.2166 147.986 28.7545 143.415 27.7798C141.455 27.4549 139.986 27.13 139.006 26.8051C133.237 25.3971 129.373 23.7184 127.414 21.769C125.237 19.8195 124.149 17.2202 124.149 13.9711C124.149 9.8556 125.727 6.44404 128.883 3.73646C132.149 1.24549 136.394 0 141.619 0C147.279 0 151.796 1.24549 155.17 3.73646C158.327 6.44404 160.014 9.9639 160.232 14.296H153.211C151.143 14.296 149.565 13.3755 148.476 11.5343C148.041 11.1011 147.605 10.6679 147.17 10.2347C145.864 9.25993 144.068 8.77256 141.782 8.77256C139.605 8.77256 137.972 9.09747 136.884 9.74729C135.904 10.3971 135.414 11.3718 135.414 12.6715C135.414 14.4043 138.244 15.8664 143.905 17.0578C144.558 17.2744 145.102 17.4368 145.537 17.5451C146.081 17.6534 146.571 17.7076 147.007 17.7076C152.558 19.1155 156.422 20.7401 158.599 22.5812C160.667 24.5307 161.701 27.13 161.701 30.3791C161.701 35.1444 159.96 38.8267 156.476 41.426C153.211 43.8087 148.313 45 141.782 45C135.578 45 130.952 43.7545 127.904 41.2635C124.747 38.7726 123.169 35.1444 123.169 30.3791V29.8917Z"/>
<path d="M214.183 30.8664H222.347C221.15 35.4152 218.864 38.8809 215.489 41.2635C212.115 43.7545 207.87 45 202.754 45C196.55 45 191.706 42.9964 188.223 38.9892C184.74 35.0903 182.998 29.5126 182.998 22.2563C182.998 15.3249 184.686 9.90975 188.06 6.01083C191.543 2.00361 196.387 0 202.591 0C209.122 0 214.183 1.94946 217.775 5.84838C221.258 9.8556 223 15.4332 223 22.5812C223 23.0144 223 23.3935 223 23.7184C223 24.0433 223 24.2599 223 24.3682C223 24.9097 222.946 25.2888 222.837 25.5054H194.591C194.7 28.8628 195.516 31.3538 197.04 32.9783C198.455 34.7112 200.577 35.5776 203.407 35.5776C205.258 35.5776 206.836 35.1986 208.142 34.4404C208.469 34.3321 208.741 34.1697 208.959 33.9531C209.285 33.6282 209.612 33.3032 209.938 32.9783C210.047 32.6534 210.428 32.2202 211.081 31.6787C211.843 31.1372 212.877 30.8664 214.183 30.8664ZM194.591 18.1949H211.244C211.027 15.2708 210.265 13.1047 208.959 11.6968C207.544 10.1805 205.53 9.42238 202.918 9.42238C200.523 9.42238 198.564 10.1805 197.04 11.6968C195.516 13.213 194.7 15.3791 194.591 18.1949Z"/>
</mask>
<path d="M35.185 30.8664H43.3486C42.1512 35.4152 39.8654 38.8809 36.4911 41.2635C33.1168 43.7545 28.8718 45 23.7559 45C17.5516 45 12.7078 42.9964 9.2247 38.9892C5.74157 35.0903 4 29.5126 4 22.2563C4 15.3249 5.68714 9.90975 9.06143 6.01083C12.5446 2.00361 17.3883 0 23.5926 0C30.1235 0 35.185 1.94946 38.7769 5.84838C42.2601 9.8556 44.0016 15.4332 44.0016 22.5812C44.0016 23.0144 44.0016 23.3935 44.0016 23.7184C44.0016 24.0433 44.0016 24.2599 44.0016 24.3682C44.0016 24.9097 43.9472 25.2888 43.8384 25.5054H15.5923C15.7012 28.8628 16.5175 31.3538 18.0414 32.9783C19.4564 34.7112 21.579 35.5776 24.409 35.5776C26.2594 35.5776 27.8377 35.1986 29.1439 34.4404C29.4704 34.3321 29.7426 34.1697 29.9602 33.9531C30.2868 33.6282 30.6133 33.3032 30.9399 32.9783C31.0487 32.6534 31.4297 32.2202 32.0828 31.6787C32.8447 31.1372 33.8788 30.8664 35.185 30.8664ZM15.5923 18.1949H32.2461C32.0284 15.2708 31.2664 13.1047 29.9602 11.6968C28.5452 10.1805 26.5315 9.42238 23.9192 9.42238C21.5245 9.42238 19.5653 10.1805 18.0414 11.6968C16.5175 13.213 15.7012 15.3791 15.5923 18.1949Z" fill="#3D9090"/>
<path d="M91.4224 22.4188C89.8985 23.1769 87.776 23.8809 85.0547 24.5307C82.5512 25.0722 81.2995 25.343 81.2995 25.343C79.3402 25.8845 77.9252 26.5884 77.0544 27.4549C76.2925 28.6462 75.9115 29.8375 75.9115 31.0289C75.9115 32.6534 76.4013 33.9531 77.381 34.9278C78.3606 35.7942 79.7756 36.2274 81.626 36.2274C84.6738 36.2274 87.0684 35.361 88.81 33.6282C90.5516 31.8953 91.4224 29.5126 91.4224 26.4801V22.4188ZM94.0347 42.4007C91.7489 43.5921 89.2998 44.296 86.6875 44.5126C84.184 44.8375 81.9526 45 79.9933 45C76.0748 45 72.6461 43.9711 69.7072 41.9134C66.7683 39.7473 65.2988 36.2274 65.2988 31.3538C65.2988 26.8051 66.605 23.556 69.2174 21.6065C71.9386 19.657 75.3673 18.3574 79.5035 17.7076C80.0477 17.7076 80.7008 17.6534 81.4628 17.5451C82.2247 17.3285 83.0955 17.1661 84.0751 17.0578C88.8644 16.4079 91.2591 15 91.2591 12.8339C91.2591 11.2094 90.3883 10.1805 88.6467 9.74729C87.014 9.20578 85.4901 8.93502 84.0751 8.93502C82.5512 8.93502 81.1907 9.15162 79.9933 9.58484C78.796 10.0181 77.9252 10.8303 77.381 12.0217H66.4417C66.8771 8.66426 68.401 5.90253 71.0134 3.73646C73.9523 1.24549 78.1429 0 83.5853 0C89.6808 0 94.2524 1.02888 97.3001 3.08664C100.457 5.25271 102.035 8.2852 102.035 12.1841V26.9675C102.035 31.2996 101.219 34.7112 99.586 37.2022C98.0621 39.5848 96.2117 41.3177 94.0347 42.4007Z" fill="#3D9090"/>
<path d="M123.169 29.8917H134.271C134.38 32.0578 135.197 33.6823 136.721 34.7653C138.353 35.8484 140.53 36.3899 143.251 36.3899C145.211 36.3899 146.898 36.0108 148.313 35.2527C149.619 34.4946 150.272 33.4657 150.272 32.1661C150.272 30.2166 147.986 28.7545 143.415 27.7798C141.455 27.4549 139.986 27.13 139.006 26.8051C133.237 25.3971 129.373 23.7184 127.414 21.769C125.237 19.8195 124.149 17.2202 124.149 13.9711C124.149 9.8556 125.727 6.44404 128.883 3.73646C132.149 1.24549 136.394 0 141.619 0C147.279 0 151.796 1.24549 155.17 3.73646C158.327 6.44404 160.014 9.9639 160.232 14.296H153.211C151.143 14.296 149.565 13.3755 148.476 11.5343C148.041 11.1011 147.605 10.6679 147.17 10.2347C145.864 9.25993 144.068 8.77256 141.782 8.77256C139.605 8.77256 137.972 9.09747 136.884 9.74729C135.904 10.3971 135.414 11.3718 135.414 12.6715C135.414 14.4043 138.244 15.8664 143.905 17.0578C144.558 17.2744 145.102 17.4368 145.537 17.5451C146.081 17.6534 146.571 17.7076 147.007 17.7076C152.558 19.1155 156.422 20.7401 158.599 22.5812C160.667 24.5307 161.701 27.13 161.701 30.3791C161.701 35.1444 159.96 38.8267 156.476 41.426C153.211 43.8087 148.313 45 141.782 45C135.578 45 130.952 43.7545 127.904 41.2635C124.747 38.7726 123.169 35.1444 123.169 30.3791V29.8917Z" fill="#3D9090"/>
<path d="M214.183 30.8664H222.347C221.15 35.4152 218.864 38.8809 215.489 41.2635C212.115 43.7545 207.87 45 202.754 45C196.55 45 191.706 42.9964 188.223 38.9892C184.74 35.0903 182.998 29.5126 182.998 22.2563C182.998 15.3249 184.686 9.90975 188.06 6.01083C191.543 2.00361 196.387 0 202.591 0C209.122 0 214.183 1.94946 217.775 5.84838C221.258 9.8556 223 15.4332 223 22.5812C223 23.0144 223 23.3935 223 23.7184C223 24.0433 223 24.2599 223 24.3682C223 24.9097 222.946 25.2888 222.837 25.5054H194.591C194.7 28.8628 195.516 31.3538 197.04 32.9783C198.455 34.7112 200.577 35.5776 203.407 35.5776C205.258 35.5776 206.836 35.1986 208.142 34.4404C208.469 34.3321 208.741 34.1697 208.959 33.9531C209.285 33.6282 209.612 33.3032 209.938 32.9783C210.047 32.6534 210.428 32.2202 211.081 31.6787C211.843 31.1372 212.877 30.8664 214.183 30.8664ZM194.591 18.1949H211.244C211.027 15.2708 210.265 13.1047 208.959 11.6968C207.544 10.1805 205.53 9.42238 202.918 9.42238C200.523 9.42238 198.564 10.1805 197.04 11.6968C195.516 13.213 194.7 15.3791 194.591 18.1949Z" fill="#3D9090"/>
<path d="M35.185 30.8664H43.3486C42.1512 35.4152 39.8654 38.8809 36.4911 41.2635C33.1168 43.7545 28.8718 45 23.7559 45C17.5516 45 12.7078 42.9964 9.2247 38.9892C5.74157 35.0903 4 29.5126 4 22.2563C4 15.3249 5.68714 9.90975 9.06143 6.01083C12.5446 2.00361 17.3883 0 23.5926 0C30.1235 0 35.185 1.94946 38.7769 5.84838C42.2601 9.8556 44.0016 15.4332 44.0016 22.5812C44.0016 23.0144 44.0016 23.3935 44.0016 23.7184C44.0016 24.0433 44.0016 24.2599 44.0016 24.3682C44.0016 24.9097 43.9472 25.2888 43.8384 25.5054H15.5923C15.7012 28.8628 16.5175 31.3538 18.0414 32.9783C19.4564 34.7112 21.579 35.5776 24.409 35.5776C26.2594 35.5776 27.8377 35.1986 29.1439 34.4404C29.4704 34.3321 29.7426 34.1697 29.9602 33.9531C30.2868 33.6282 30.6133 33.3032 30.9399 32.9783C31.0487 32.6534 31.4297 32.2202 32.0828 31.6787C32.8447 31.1372 33.8788 30.8664 35.185 30.8664ZM15.5923 18.1949H32.2461C32.0284 15.2708 31.2664 13.1047 29.9602 11.6968C28.5452 10.1805 26.5315 9.42238 23.9192 9.42238C21.5245 9.42238 19.5653 10.1805 18.0414 11.6968C16.5175 13.213 15.7012 15.3791 15.5923 18.1949Z" stroke="black" stroke-width="2" mask="url(#path-1-inside-1_1_14)"/>
<path d="M35.185 30.8664H43.3486C42.1512 35.4152 39.8654 38.8809 36.4911 41.2635C33.1168 43.7545 28.8718 45 23.7559 45C17.5516 45 12.7078 42.9964 9.2247 38.9892C5.74157 35.0903 4 29.5126 4 22.2563C4 15.3249 5.68714 9.90975 9.06143 6.01083C12.5446 2.00361 17.3883 0 23.5926 0C30.1235 0 35.185 1.94946 38.7769 5.84838C42.2601 9.8556 44.0016 15.4332 44.0016 22.5812C44.0016 23.0144 44.0016 23.3935 44.0016 23.7184C44.0016 24.0433 44.0016 24.2599 44.0016 24.3682C44.0016 24.9097 43.9472 25.2888 43.8384 25.5054H15.5923C15.7012 28.8628 16.5175 31.3538 18.0414 32.9783C19.4564 34.7112 21.579 35.5776 24.409 35.5776C26.2594 35.5776 27.8377 35.1986 29.1439 34.4404C29.4704 34.3321 29.7426 34.1697 29.9602 33.9531C30.2868 33.6282 30.6133 33.3032 30.9399 32.9783C31.0487 32.6534 31.4297 32.2202 32.0828 31.6787C32.8447 31.1372 33.8788 30.8664 35.185 30.8664ZM15.5923 18.1949H32.2461C32.0284 15.2708 31.2664 13.1047 29.9602 11.6968C28.5452 10.1805 26.5315 9.42238 23.9192 9.42238C21.5245 9.42238 19.5653 10.1805 18.0414 11.6968C16.5175 13.213 15.7012 15.3791 15.5923 18.1949Z" stroke="black" stroke-opacity="0.2" stroke-width="2" mask="url(#path-1-inside-1_1_14)"/>
<path d="M91.4224 22.4188C89.8985 23.1769 87.776 23.8809 85.0547 24.5307C82.5512 25.0722 81.2995 25.343 81.2995 25.343C79.3402 25.8845 77.9252 26.5884 77.0544 27.4549C76.2925 28.6462 75.9115 29.8375 75.9115 31.0289C75.9115 32.6534 76.4013 33.9531 77.381 34.9278C78.3606 35.7942 79.7756 36.2274 81.626 36.2274C84.6738 36.2274 87.0684 35.361 88.81 33.6282C90.5516 31.8953 91.4224 29.5126 91.4224 26.4801V22.4188ZM94.0347 42.4007C91.7489 43.5921 89.2998 44.296 86.6875 44.5126C84.184 44.8375 81.9526 45 79.9933 45C76.0748 45 72.6461 43.9711 69.7072 41.9134C66.7683 39.7473 65.2988 36.2274 65.2988 31.3538C65.2988 26.8051 66.605 23.556 69.2174 21.6065C71.9386 19.657 75.3673 18.3574 79.5035 17.7076C80.0477 17.7076 80.7008 17.6534 81.4628 17.5451C82.2247 17.3285 83.0955 17.1661 84.0751 17.0578C88.8644 16.4079 91.2591 15 91.2591 12.8339C91.2591 11.2094 90.3883 10.1805 88.6467 9.74729C87.014 9.20578 85.4901 8.93502 84.0751 8.93502C82.5512 8.93502 81.1907 9.15162 79.9933 9.58484C78.796 10.0181 77.9252 10.8303 77.381 12.0217H66.4417C66.8771 8.66426 68.401 5.90253 71.0134 3.73646C73.9523 1.24549 78.1429 0 83.5853 0C89.6808 0 94.2524 1.02888 97.3001 3.08664C100.457 5.25271 102.035 8.2852 102.035 12.1841V26.9675C102.035 31.2996 101.219 34.7112 99.586 37.2022C98.0621 39.5848 96.2117 41.3177 94.0347 42.4007Z" stroke="black" stroke-width="2" mask="url(#path-1-inside-1_1_14)"/>
<path d="M91.4224 22.4188C89.8985 23.1769 87.776 23.8809 85.0547 24.5307C82.5512 25.0722 81.2995 25.343 81.2995 25.343C79.3402 25.8845 77.9252 26.5884 77.0544 27.4549C76.2925 28.6462 75.9115 29.8375 75.9115 31.0289C75.9115 32.6534 76.4013 33.9531 77.381 34.9278C78.3606 35.7942 79.7756 36.2274 81.626 36.2274C84.6738 36.2274 87.0684 35.361 88.81 33.6282C90.5516 31.8953 91.4224 29.5126 91.4224 26.4801V22.4188ZM94.0347 42.4007C91.7489 43.5921 89.2998 44.296 86.6875 44.5126C84.184 44.8375 81.9526 45 79.9933 45C76.0748 45 72.6461 43.9711 69.7072 41.9134C66.7683 39.7473 65.2988 36.2274 65.2988 31.3538C65.2988 26.8051 66.605 23.556 69.2174 21.6065C71.9386 19.657 75.3673 18.3574 79.5035 17.7076C80.0477 17.7076 80.7008 17.6534 81.4628 17.5451C82.2247 17.3285 83.0955 17.1661 84.0751 17.0578C88.8644 16.4079 91.2591 15 91.2591 12.8339C91.2591 11.2094 90.3883 10.1805 88.6467 9.74729C87.014 9.20578 85.4901 8.93502 84.0751 8.93502C82.5512 8.93502 81.1907 9.15162 79.9933 9.58484C78.796 10.0181 77.9252 10.8303 77.381 12.0217H66.4417C66.8771 8.66426 68.401 5.90253 71.0134 3.73646C73.9523 1.24549 78.1429 0 83.5853 0C89.6808 0 94.2524 1.02888 97.3001 3.08664C100.457 5.25271 102.035 8.2852 102.035 12.1841V26.9675C102.035 31.2996 101.219 34.7112 99.586 37.2022C98.0621 39.5848 96.2117 41.3177 94.0347 42.4007Z" stroke="black" stroke-opacity="0.2" stroke-width="2" mask="url(#path-1-inside-1_1_14)"/>
<path d="M123.169 29.8917H134.271C134.38 32.0578 135.197 33.6823 136.721 34.7653C138.353 35.8484 140.53 36.3899 143.251 36.3899C145.211 36.3899 146.898 36.0108 148.313 35.2527C149.619 34.4946 150.272 33.4657 150.272 32.1661C150.272 30.2166 147.986 28.7545 143.415 27.7798C141.455 27.4549 139.986 27.13 139.006 26.8051C133.237 25.3971 129.373 23.7184 127.414 21.769C125.237 19.8195 124.149 17.2202 124.149 13.9711C124.149 9.8556 125.727 6.44404 128.883 3.73646C132.149 1.24549 136.394 0 141.619 0C147.279 0 151.796 1.24549 155.17 3.73646C158.327 6.44404 160.014 9.9639 160.232 14.296H153.211C151.143 14.296 149.565 13.3755 148.476 11.5343C148.041 11.1011 147.605 10.6679 147.17 10.2347C145.864 9.25993 144.068 8.77256 141.782 8.77256C139.605 8.77256 137.972 9.09747 136.884 9.74729C135.904 10.3971 135.414 11.3718 135.414 12.6715C135.414 14.4043 138.244 15.8664 143.905 17.0578C144.558 17.2744 145.102 17.4368 145.537 17.5451C146.081 17.6534 146.571 17.7076 147.007 17.7076C152.558 19.1155 156.422 20.7401 158.599 22.5812C160.667 24.5307 161.701 27.13 161.701 30.3791C161.701 35.1444 159.96 38.8267 156.476 41.426C153.211 43.8087 148.313 45 141.782 45C135.578 45 130.952 43.7545 127.904 41.2635C124.747 38.7726 123.169 35.1444 123.169 30.3791V29.8917Z" stroke="black" stroke-width="2" mask="url(#path-1-inside-1_1_14)"/>
<path d="M123.169 29.8917H134.271C134.38 32.0578 135.197 33.6823 136.721 34.7653C138.353 35.8484 140.53 36.3899 143.251 36.3899C145.211 36.3899 146.898 36.0108 148.313 35.2527C149.619 34.4946 150.272 33.4657 150.272 32.1661C150.272 30.2166 147.986 28.7545 143.415 27.7798C141.455 27.4549 139.986 27.13 139.006 26.8051C133.237 25.3971 129.373 23.7184 127.414 21.769C125.237 19.8195 124.149 17.2202 124.149 13.9711C124.149 9.8556 125.727 6.44404 128.883 3.73646C132.149 1.24549 136.394 0 141.619 0C147.279 0 151.796 1.24549 155.17 3.73646C158.327 6.44404 160.014 9.9639 160.232 14.296H153.211C151.143 14.296 149.565 13.3755 148.476 11.5343C148.041 11.1011 147.605 10.6679 147.17 10.2347C145.864 9.25993 144.068 8.77256 141.782 8.77256C139.605 8.77256 137.972 9.09747 136.884 9.74729C135.904 10.3971 135.414 11.3718 135.414 12.6715C135.414 14.4043 138.244 15.8664 143.905 17.0578C144.558 17.2744 145.102 17.4368 145.537 17.5451C146.081 17.6534 146.571 17.7076 147.007 17.7076C152.558 19.1155 156.422 20.7401 158.599 22.5812C160.667 24.5307 161.701 27.13 161.701 30.3791C161.701 35.1444 159.96 38.8267 156.476 41.426C153.211 43.8087 148.313 45 141.782 45C135.578 45 130.952 43.7545 127.904 41.2635C124.747 38.7726 123.169 35.1444 123.169 30.3791V29.8917Z" stroke="black" stroke-opacity="0.2" stroke-width="2" mask="url(#path-1-inside-1_1_14)"/>
<path d="M214.183 30.8664H222.347C221.15 35.4152 218.864 38.8809 215.489 41.2635C212.115 43.7545 207.87 45 202.754 45C196.55 45 191.706 42.9964 188.223 38.9892C184.74 35.0903 182.998 29.5126 182.998 22.2563C182.998 15.3249 184.686 9.90975 188.06 6.01083C191.543 2.00361 196.387 0 202.591 0C209.122 0 214.183 1.94946 217.775 5.84838C221.258 9.8556 223 15.4332 223 22.5812C223 23.0144 223 23.3935 223 23.7184C223 24.0433 223 24.2599 223 24.3682C223 24.9097 222.946 25.2888 222.837 25.5054H194.591C194.7 28.8628 195.516 31.3538 197.04 32.9783C198.455 34.7112 200.577 35.5776 203.407 35.5776C205.258 35.5776 206.836 35.1986 208.142 34.4404C208.469 34.3321 208.741 34.1697 208.959 33.9531C209.285 33.6282 209.612 33.3032 209.938 32.9783C210.047 32.6534 210.428 32.2202 211.081 31.6787C211.843 31.1372 212.877 30.8664 214.183 30.8664ZM194.591 18.1949H211.244C211.027 15.2708 210.265 13.1047 208.959 11.6968C207.544 10.1805 205.53 9.42238 202.918 9.42238C200.523 9.42238 198.564 10.1805 197.04 11.6968C195.516 13.213 194.7 15.3791 194.591 18.1949Z" stroke="black" stroke-width="2" mask="url(#path-1-inside-1_1_14)"/>
<path d="M214.183 30.8664H222.347C221.15 35.4152 218.864 38.8809 215.489 41.2635C212.115 43.7545 207.87 45 202.754 45C196.55 45 191.706 42.9964 188.223 38.9892C184.74 35.0903 182.998 29.5126 182.998 22.2563C182.998 15.3249 184.686 9.90975 188.06 6.01083C191.543 2.00361 196.387 0 202.591 0C209.122 0 214.183 1.94946 217.775 5.84838C221.258 9.8556 223 15.4332 223 22.5812C223 23.0144 223 23.3935 223 23.7184C223 24.0433 223 24.2599 223 24.3682C223 24.9097 222.946 25.2888 222.837 25.5054H194.591C194.7 28.8628 195.516 31.3538 197.04 32.9783C198.455 34.7112 200.577 35.5776 203.407 35.5776C205.258 35.5776 206.836 35.1986 208.142 34.4404C208.469 34.3321 208.741 34.1697 208.959 33.9531C209.285 33.6282 209.612 33.3032 209.938 32.9783C210.047 32.6534 210.428 32.2202 211.081 31.6787C211.843 31.1372 212.877 30.8664 214.183 30.8664ZM194.591 18.1949H211.244C211.027 15.2708 210.265 13.1047 208.959 11.6968C207.544 10.1805 205.53 9.42238 202.918 9.42238C200.523 9.42238 198.564 10.1805 197.04 11.6968C195.516 13.213 194.7 15.3791 194.591 18.1949Z" stroke="black" stroke-opacity="0.2" stroke-width="2" mask="url(#path-1-inside-1_1_14)"/>
</g>
<defs>
<filter id="filter0_d_1_14" x="0" y="0" width="227" height="53" filterUnits="userSpaceOnUse" color-interpolation-filters="sRGB">
<feFlood flood-opacity="0" result="BackgroundImageFix"/>
<feColorMatrix in="SourceAlpha" type="matrix" values="0 0 0 0 0 0 0 0 0 0 0 0 0 0 0 0 0 0 127 0" result="hardAlpha"/>
<feOffset dy="4"/>
<feGaussianBlur stdDeviation="2"/>
<feComposite in2="hardAlpha" operator="out"/>
<feColorMatrix type="matrix" values="0 0 0 0 0 0 0 0 0 0 0 0 0 0 0 0 0 0 0.25 0"/>
<feBlend mode="normal" in2="BackgroundImageFix" result="effect1_dropShadow_1_14"/>
<feBlend mode="normal" in="SourceGraphic" in2="effect1_dropShadow_1_14" result="shape"/>
</filter>
</defs>
</svg>
